<svg xmlns="http://www.w3.org/2000/svg" width="300" height="38" viewBox="0 0 300 38">
  <rect width="300" height="38" fill="#484848"/>
  <!-- ROW 1 -->
  <rect x="0"   y="0"  width="10" height="13" fill="#3A3A3A"/>
  <rect x="10"  y="0"  width="8"  height="13" fill="#525252"/>
  <rect x="18"  y="0"  width="12" height="13" fill="#0A0A0A"/>
  <rect x="30"  y="0"  width="8"  height="13" fill="#5E5E5E"/>
  <rect x="38"  y="0"  width="10" height="13" fill="#484848"/>
  <rect x="48"  y="0"  width="14" height="13" fill="#3A3A3A"/>
  <rect x="62"  y="0"  width="8"  height="13" fill="#686868"/>
  <rect x="70"  y="0"  width="12" height="13" fill="#1C1C1C"/>
  <rect x="82"  y="0"  width="10" height="13" fill="#525252"/>
  <rect x="92"  y="0"  width="8"  height="13" fill="#3A3A3A"/>
  <rect x="100" y="0"  width="14" height="13" fill="#8A8A8A"/>
  <rect x="114" y="0"  width="8"  height="13" fill="#484848"/>
  <rect x="122" y="0"  width="12" height="13" fill="#272727"/>
  <rect x="134" y="0"  width="10" height="13" fill="#5E5E5E"/>
  <rect x="144" y="0"  width="8"  height="13" fill="#3A3A3A"/>
  <rect x="152" y="0"  width="14" height="13" fill="#525252"/>
  <rect x="166" y="0"  width="8"  height="13" fill="#1C1C1C"/>
  <rect x="174" y="0"  width="10" height="13" fill="#686868"/>
  <rect x="184" y="0"  width="12" height="13" fill="#484848"/>
  <rect x="196" y="0"  width="8"  height="13" fill="#3A3A3A"/>
  <rect x="204" y="0"  width="14" height="13" fill="#9A9A9A"/>
  <rect x="218" y="0"  width="8"  height="13" fill="#525252"/>
  <rect x="226" y="0"  width="10" height="13" fill="#0A0A0A"/>
  <rect x="236" y="0"  width="12" height="13" fill="#5E5E5E"/>
  <rect x="248" y="0"  width="8"  height="13" fill="#3A3A3A"/>
  <rect x="256" y="0"  width="14" height="13" fill="#484848"/>
  <rect x="270" y="0"  width="8"  height="13" fill="#C0C0C0"/>
  <rect x="278" y="0"  width="10" height="13" fill="#3A3A3A"/>
  <rect x="288" y="0"  width="12" height="13" fill="#272727"/>
  <!-- ROW 2 -->
  <rect x="0"   y="13" width="12" height="12" fill="#686868"/>
  <rect x="12"  y="13" width="10" height="12" fill="#3A3A3A"/>
  <rect x="22"  y="13" width="8"  height="12" fill="#525252"/>
  <rect x="30"  y="13" width="14" height="12" fill="#1C1C1C"/>
  <rect x="44"  y="13" width="8"  height="12" fill="#484848"/>
  <rect x="52"  y="13" width="12" height="12" fill="#3A3A3A"/>
  <rect x="64"  y="13" width="10" height="12" fill="#5E5E5E"/>
  <rect x="74"  y="13" width="8"  height="12" fill="#272727"/>
  <rect x="82"  y="13" width="14" height="12" fill="#3A3A3A"/>
  <rect x="96"  y="13" width="8"  height="12" fill="#8A8A8A"/>
  <rect x="104" y="13" width="10" height="12" fill="#525252"/>
  <rect x="114" y="13" width="12" height="12" fill="#484848"/>
  <rect x="126" y="13" width="8"  height="12" fill="#3A3A3A"/>
  <rect x="134" y="13" width="14" height="12" fill="#0A0A0A"/>
  <rect x="148" y="13" width="8"  height="12" fill="#686868"/>
  <rect x="156" y="13" width="10" height="12" fill="#3A3A3A"/>
  <rect x="166" y="13" width="12" height="12" fill="#5E5E5E"/>
  <rect x="178" y="13" width="8"  height="12" fill="#525252"/>
  <rect x="186" y="13" width="14" height="12" fill="#1C1C1C"/>
  <rect x="200" y="13" width="8"  height="12" fill="#484848"/>
  <rect x="208" y="13" width="10" height="12" fill="#3A3A3A"/>
  <rect x="218" y="13" width="12" height="12" fill="#9A9A9A"/>
  <rect x="230" y="13" width="8"  height="12" fill="#3A3A3A"/>
  <rect x="238" y="13" width="14" height="12" fill="#272727"/>
  <rect x="252" y="13" width="8"  height="12" fill="#5E5E5E"/>
  <rect x="260" y="13" width="10" height="12" fill="#484848"/>
  <rect x="270" y="13" width="12" height="12" fill="#3A3A3A"/>
  <rect x="282" y="13" width="8"  height="12" fill="#686868"/>
  <rect x="290" y="13" width="10" height="12" fill="#0A0A0A"/>
  <!-- ROW 3 -->
  <rect x="0"   y="25" width="14" height="13" fill="#3A3A3A"/>
  <rect x="14"  y="25" width="8"  height="13" fill="#525252"/>
  <rect x="22"  y="25" width="10" height="13" fill="#1C1C1C"/>
  <rect x="32"  y="25" width="12" height="13" fill="#484848"/>
  <rect x="44"  y="25" width="8"  height="13" fill="#5E5E5E"/>
  <rect x="52"  y="25" width="14" height="13" fill="#3A3A3A"/>
  <rect x="66"  y="25" width="8"  height="13" fill="#0A0A0A"/>
  <rect x="74"  y="25" width="10" height="13" fill="#686868"/>
  <rect x="84"  y="25" width="12" height="13" fill="#525252"/>
  <rect x="96"  y="25" width="8"  height="13" fill="#3A3A3A"/>
  <rect x="104" y="25" width="14" height="13" fill="#484848"/>
  <rect x="118" y="25" width="8"  height="13" fill="#8A8A8A"/>
  <rect x="126" y="25" width="10" height="13" fill="#272727"/>
  <rect x="136" y="25" width="12" height="13" fill="#3A3A3A"/>
  <rect x="148" y="25" width="8"  height="13" fill="#5E5E5E"/>
  <rect x="156" y="25" width="14" height="13" fill="#525252"/>
  <rect x="170" y="25" width="8"  height="13" fill="#3A3A3A"/>
  <rect x="178" y="25" width="10" height="13" fill="#1C1C1C"/>
  <rect x="188" y="25" width="12" height="13" fill="#686868"/>
  <rect x="200" y="25" width="8"  height="13" fill="#484848"/>
  <rect x="208" y="25" width="14" height="13" fill="#3A3A3A"/>
  <rect x="222" y="25" width="8"  height="13" fill="#9A9A9A"/>
  <rect x="230" y="25" width="10" height="13" fill="#525252"/>
  <rect x="240" y="25" width="12" height="13" fill="#0A0A0A"/>
  <rect x="252" y="25" width="8"  height="13" fill="#3A3A3A"/>
  <rect x="260" y="25" width="14" height="13" fill="#5E5E5E"/>
  <rect x="274" y="25" width="8"  height="13" fill="#484848"/>
  <rect x="282" y="25" width="10" height="13" fill="#3A3A3A"/>
  <rect x="292" y="25" width="8"  height="13" fill="#272727"/>
</svg>
